<svg xmlns="http://www.w3.org/2000/svg" version="1.1" xmlns:xlink="http://www.w3.org/1999/xlink" xmlns:svgjs="http://svgjs.dev/svgjs" width="2000" height="550" viewBox="0 0 2000 550"><g transform="matrix(1,0,0,1,-1.2121212121212466,0.931505790353583)"><svg viewBox="0 0 396 109" data-background-color="#ffffff" preserveAspectRatio="xMidYMid meet" height="550" width="2000" xmlns="http://www.w3.org/2000/svg" xmlns:xlink="http://www.w3.org/1999/xlink"><g id="tight-bounds" transform="matrix(1,0,0,1,0.2400000000000091,-0.1846075111791663)"><svg viewBox="0 0 395.52 109.36921500807175" height="109.36921500807175" width="395.52"><g><svg viewBox="0 0 609.0480329988902 168.41399997800062" height="109.36921500807175" width="395.52"><g transform="matrix(1,0,0,1,213.5280329988902,36.43209591055779)"><svg viewBox="0 0 395.52 95.54980815688504" height="95.54980815688504" width="395.52"><g id="textblocktransform"><svg viewBox="0 0 395.52 95.54980815688504" height="95.54980815688504" width="395.52" id="textblock"><g><svg viewBox="0 0 395.52 95.54980815688504" height="95.54980815688504" width="395.52"><g transform="matrix(1,0,0,1,0,0)"><svg width="395.52" viewBox="1.56 -39.84 171.79 41.5" height="95.54980815688504" data-palette-color="#ff4136"><path d="M27.47-33.89L35.08-35.94Q35.21-35.96 35.31-35.97 35.42-35.99 35.52-35.99L35.52-35.99Q35.96-35.99 36.23-35.71 36.5-35.42 36.6-34.72L36.6-34.72Q36.65-34.28 36.76-33.48 36.87-32.69 37-31.73 37.13-30.76 37.29-29.74 37.45-28.71 37.57-27.84 37.7-26.98 37.79-26.35 37.89-25.73 37.92-25.56L37.92-25.56Q38.45-21.24 38.87-18.63 39.28-16.02 39.45-14.77L39.45-14.77 41.09-1.56 40.84-0.81Q40.8-0.63 40.21-0.39 39.62-0.15 38.79 0.13 37.96 0.42 36.99 0.68 36.01 0.95 35.18 1.17 34.35 1.39 33.78 1.53 33.2 1.66 33.18 1.66L33.18 1.66Q32.59 1.66 32.25 0.81 31.91-0.05 31.69-1.37 31.47-2.69 31.34-4.25 31.2-5.81 31.03-7.25L31.03-7.25Q30.88-8.45 30.76-9.67 30.64-10.89 30.49-12.16L30.49-12.16 29.54-19.29 20.48-2.71Q20.07-2.12 19.65-1.87 19.24-1.61 18.87-1.61L18.87-1.61Q18.33-1.61 18.03-1.93 17.72-2.25 17.6-2.71L17.6-2.71Q17.14-4.25 16.81-5.31 16.48-6.37 16.2-7.25 15.92-8.13 15.67-8.96 15.43-9.79 15.12-10.88 14.82-11.96 14.44-13.44 14.06-14.92 13.53-17.07L13.53-17.07 12.77-13.55 9.25 1.37Q9.18 1.66 8.64 1.66L8.64 1.66Q8.13 1.66 7.24 1.46 6.35 1.27 5.38 0.99 4.42 0.71 3.5 0.4 2.59 0.1 2.05-0.15L2.05-0.15Q1.93-0.2 1.75-0.38 1.56-0.56 1.56-0.95L1.56-0.95Q1.56-1.05 1.64-1.37 1.71-1.68 1.82-2.11 1.93-2.54 2.06-2.98 2.2-3.42 2.32-3.76L2.32-3.76Q2.64-4.59 2.89-5.71 3.15-6.84 3.37-7.98 3.59-9.13 3.77-10.18 3.96-11.23 4.13-11.94L4.13-11.94 7.13-25.95 8.03-29.91Q8.2-30.66 8.36-31.38 8.52-32.1 8.64-32.69 8.76-33.28 8.84-33.64 8.91-34.01 8.91-34.06L8.91-34.06 15.01-35.94Q15.36-35.94 15.61-35.88 15.87-35.82 15.94-35.47L15.94-35.47 20.8-19.85 27.47-33.89ZM57.81 1.27L57.81 1.27Q54.37 1.27 51.77 0.15 49.17-0.98 47.41-2.84 45.65-4.71 44.77-7.14 43.89-9.57 43.89-12.18L43.89-12.18Q43.89-14.79 44.75-17.15 45.6-19.51 47.14-21.37 48.68-23.24 50.83-24.5 52.98-25.76 55.56-26.2L55.56-26.2Q55.95-26.22 55.95-26.37L55.95-26.37Q55.95-26.64 55.89-26.87 55.83-27.1 55.83-27.27L55.83-27.27Q55.83-27.54 55.93-27.64 56.03-27.73 56.15-27.73L56.15-27.73Q60.81-27.73 64.08-26.67 67.36-25.61 69.41-23.78 71.46-21.95 72.39-19.46 73.31-16.97 73.31-14.11L73.31-14.11Q73.31-10.47 72.09-7.62 70.87-4.76 68.76-2.78 66.65-0.81 63.83 0.23 61.01 1.27 57.81 1.27ZM53.29-12.45L53.29-12.45Q53.29-11.13 53.57-9.84 53.85-8.54 54.5-7.5 55.15-6.45 56.2-5.8 57.25-5.15 58.81-5.15L58.81-5.15Q59.93-5.2 60.78-5.65 61.62-6.1 62.23-6.82 62.84-7.54 63.24-8.45 63.64-9.35 63.88-10.31 64.11-11.28 64.21-12.21 64.3-13.13 64.3-13.89L64.3-13.89Q64.3-15.16 63.93-16.38 63.55-17.6 62.81-18.53 62.08-19.46 61-20.03 59.91-20.61 58.49-20.61L58.49-20.61Q57.03-20.61 56.03-19.74 55.03-18.87 54.43-17.6 53.83-16.33 53.56-14.93 53.29-13.53 53.29-12.45ZM93.7-27L93.7-27Q93.79-27.25 94.06-27.25L94.06-27.25Q94.11-27.25 94.16-27.23 94.21-27.22 94.26-27.22L94.26-27.22Q96.09-26.51 98.02-26.06 99.95-25.61 101.85-25.2L101.85-25.2Q102.31-25.1 102.31-24.66L102.31-24.66Q102.31-24.34 102.02-23.68L102.02-23.68 91.96-2.29Q91.77-1.86 91.62-1.59 91.47-1.32 91.33-1.15 91.18-0.98 91.01-0.9 90.84-0.83 90.6-0.78L90.6-0.78Q88.74-0.42 86.84 0.06 84.93 0.54 82.88 1.25L82.88 1.25Q82.83 1.25 82.81 1.26 82.78 1.27 82.76 1.27L82.76 1.27 82.59 1.27Q82.47 1.27 82.39 1.18 82.32 1.1 82.29 1.03L82.29 1.03Q81.93-0.02 81.45-1.68 80.98-3.34 80.41-5.4 79.85-7.45 79.24-9.77 78.63-12.08 78-14.48 77.36-16.87 76.74-19.23 76.12-21.58 75.53-23.68L75.53-23.68Q75.31-24.44 75.31-24.76L75.31-24.76Q75.31-25.1 75.7-25.2L75.7-25.2Q77.61-25.61 79.66-26.06 81.71-26.51 83.54-27.22L83.54-27.22Q83.61-27.25 83.76-27.25L83.76-27.25Q84.08-27.25 84.1-27L84.1-27 87.32-10.6Q87.45-10.89 87.74-11.66 88.03-12.43 88.45-13.5 88.86-14.58 89.36-15.87 89.86-17.16 90.39-18.51 90.91-19.85 91.43-21.18 91.94-22.51 92.39-23.66 92.84-24.8 93.18-25.68 93.53-26.56 93.7-27ZM103.73-10.35L103.73-10.35Q104.05-13.7 104.36-16.97 104.68-20.24 104.92-23.68L104.92-23.68Q104.97-24.49 105.08-24.79 105.19-25.1 105.63-25.2L105.63-25.2Q107.71-25.61 109.98-26.06 112.25-26.51 114.37-27.22L114.37-27.22Q114.45-27.25 114.59-27.25L114.59-27.25Q114.86-27.25 114.86-27.05L114.86-27.05 112.66-3.27Q112.59-2.47 112.49-2.16 112.39-1.86 111.96-1.76L111.96-1.76Q109.88-1.12 107.76-0.34 105.63 0.44 103.26 1.25L103.26 1.25Q103.19 1.27 103.04 1.27L103.04 1.27Q102.78 1.27 102.78 1.03L102.78 1.03Q102.78 1 102.82 0.37 102.87-0.27 102.96-1.27 103.04-2.27 103.14-3.52 103.24-4.76 103.35-6.01 103.46-7.25 103.56-8.4 103.65-9.55 103.73-10.35ZM105.56-29.83L105.56-29.83Q105.63-30.88 105.67-31.45 105.71-32.01 105.73-32.29 105.75-32.57 105.75-32.64 105.75-32.71 105.77-32.75 105.78-32.79 105.79-32.9 105.8-33.01 105.83-33.36 105.85-33.72 105.9-34.4 105.95-35.08 106.05-36.28L106.05-36.28Q106.1-37.08 106.21-37.39 106.32-37.7 106.76-37.79L106.76-37.79Q108.83-38.21 111.1-38.66 113.37-39.11 115.5-39.82L115.5-39.82Q115.57-39.84 115.72-39.84L115.72-39.84Q115.79-39.7 115.91-39.65L115.91-39.65 115.98-39.6 115.45-32.91Q115.37-32.1 115.26-31.79 115.15-31.47 114.74-31.4L114.74-31.4Q112.66-31.01 110.54-30.54 108.42-30.08 106.05-29.61L106.05-29.61Q105.97-29.59 105.83-29.59L105.83-29.59Q105.56-29.59 105.56-29.83ZM132.58-27.25L132.58-27.25Q134.9-27.25 136.79-26.38 138.69-25.51 140.04-24.13 141.4-22.75 142.13-21.04 142.86-19.34 142.86-17.63L142.86-17.63Q142.86-16.11 141.93-14.59 141.01-13.06 139.33-11.84 137.66-10.62 135.32-9.86 132.97-9.11 130.17-9.11L130.17-9.11Q128.7-9.11 127.09-9.4L127.09-9.4Q127.19-8.35 127.7-7.59 128.21-6.84 128.99-6.35 129.78-5.86 130.76-5.63 131.75-5.4 132.8-5.4L132.8-5.4Q133.97-5.4 135.06-5.6 136.15-5.81 137.15-6.15 138.15-6.49 139.08-6.91 140-7.32 140.83-7.74L140.83-7.74Q141.05-7.79 141.21-7.82 141.37-7.86 141.52-7.86L141.52-7.86Q141.52-7.86 141.51-7.47 141.49-7.08 141.49-6.37 141.49-5.66 141.48-4.66 141.47-3.66 141.45-2.44L141.45-2.44Q141.52-2.32 141.54-2.2 141.57-2.08 141.57-2L141.57-2Q141.57-1.71 141.03-1.37 140.49-1.03 139.63-0.66 138.76-0.29 137.65 0.05 136.54 0.39 135.39 0.67 134.24 0.95 133.17 1.11 132.09 1.27 131.29 1.27L131.29 1.27Q128.65 1.27 126.17 0.35 123.7-0.56 121.78-2.27 119.86-3.98 118.72-6.42 117.57-8.86 117.57-11.91L117.57-11.91Q117.57-15.11 118.67-17.91 119.77-20.7 121.76-22.78 123.74-24.85 126.5-26.05 129.26-27.25 132.58-27.25ZM132.29-20.75L132.29-20.75Q131.29-20.75 130.45-20.32 129.6-19.9 128.91-19.1 128.21-18.31 127.7-17.2 127.19-16.09 126.87-14.75L126.87-14.75Q129.38-15.19 131.04-15.67 132.7-16.16 133.71-16.66 134.71-17.16 135.12-17.66 135.54-18.16 135.54-18.63L135.54-18.63Q135.54-19.07 135.21-19.46 134.88-19.85 134.39-20.14 133.9-20.43 133.33-20.59 132.75-20.75 132.29-20.75ZM173.35-27.66L170.84-4.91Q170.81-4.81 170.81-4.72 170.81-4.64 170.81-4.57L170.81-4.57Q170.81-3.96 171.01-3.55 171.2-3.15 171.44-2.89 171.67-2.64 171.86-2.48 172.06-2.32 172.06-2.2L172.06-2.2Q172.06-1.86 171.33-1.56L171.33-1.56 164.76 1.25Q164.73 1.27 164.59 1.27L164.59 1.27Q164.39 1.27 164.2 0.93 164 0.59 163.82 0.06 163.63-0.46 163.48-1.06 163.32-1.66 163.2-2.17L163.2-2.17Q161.66-0.39 159.88 0.44 158.09 1.27 156.34 1.27L156.34 1.27Q154.28 1.27 152.33 0.37 150.38-0.54 148.86-2.21 147.35-3.88 146.44-6.25 145.52-8.62 145.52-11.57L145.52-11.57Q145.52-15.06 146.53-17.94 147.55-20.83 149.28-22.9 151.01-24.98 153.32-26.11 155.63-27.25 158.22-27.25L158.22-27.25Q160.05-27.25 161.68-26.5 163.32-25.76 164.78-24.58L164.78-24.58Q164.93-25.32 164.95-25.76 164.98-26.2 165.06-26.44 165.15-26.68 165.39-26.77 165.64-26.86 166.2-26.9L166.2-26.9Q167.96-27.15 169.7-27.36 171.45-27.56 173.35-27.66L173.35-27.66ZM162.51-6.88L163.54-14.11Q163.78-15.5 163.87-16.74 163.95-17.97 164-18.99L164-18.99Q163.61-19.29 163.16-19.6 162.71-19.92 162.18-20.2 161.66-20.48 161.08-20.65 160.51-20.83 159.88-20.83L159.88-20.83Q158.56-20.83 157.67-19.97 156.77-19.12 156.23-17.87 155.68-16.63 155.44-15.23 155.21-13.84 155.21-12.77L155.21-12.77Q155.21-8.91 156.23-7.12 157.24-5.32 159.05-5.32L159.05-5.32Q159.78-5.32 160.68-5.74 161.58-6.15 162.51-6.88L162.51-6.88Z" opacity="1" transform="matrix(1,0,0,1,0,0)" fill="#ff4136" class="undefined-text-0" data-fill-palette-color="primary" id="text-0"></path></svg></g></svg></g></svg></g></svg></g><g><svg viewBox="0 0 168.41399997800062 168.41399997800062" height="168.41399997800062" width="168.41399997800062"><g><svg></svg></g><g id="icon-0"><svg viewBox="0 0 168.41399997800062 168.41399997800062" height="168.41399997800062" width="168.41399997800062"><g><path d="M0 84.207c0-46.506 37.701-84.207 84.207-84.207 46.506 0 84.207 37.701 84.207 84.207 0 46.506-37.701 84.207-84.207 84.207-46.506 0-84.207-37.701-84.207-84.207zM84.207 159.797c41.747 0 75.59-33.843 75.59-75.59 0-41.747-33.843-75.59-75.59-75.59-41.747 0-75.59 33.843-75.59 75.59 0 41.747 33.843 75.59 75.59 75.59z" data-fill-palette-color="accent" fill="#ff4136" stroke="transparent"></path><ellipse rx="83.36492998911031" ry="83.36492998911031" cx="84.20699998900031" cy="84.20699998900031" fill="#ff4136" stroke="transparent" stroke-width="0" fill-opacity="1" data-fill-palette-color="accent"></ellipse></g><g transform="matrix(1,0,0,1,37.389730640298566,47.14332842127809)"><svg viewBox="0 0 93.63453869740349 74.12734313544443" height="74.12734313544443" width="93.63453869740349"><g><svg xmlns="http://www.w3.org/2000/svg" xmlns:xlink="http://www.w3.org/1999/xlink" version="1.1" x="0" y="0" viewBox="5 14.375 90 71.25" enable-background="new 0 0 100 100" xml:space="preserve" height="74.12734313544443" width="93.63453869740349" class="icon-g$-0" data-fill-palette-color="quaternary" id="g$-0"><g fill="#ffffff" data-fill-palette-color="quaternary"><g fill="#ffffff" data-fill-palette-color="quaternary"><path d="M5 66.875h15v-15H5V66.875zM5 83.75c0 1.036 0.839 1.875 1.875 1.875H20v-15H5V83.75zM5 16.25v13.125h15v-15H6.875C5.839 14.375 5 15.214 5 16.25zM80 85.625h13.125c1.036 0 1.875-0.839 1.875-1.875V70.625H80V85.625zM5 48.125h15v-15H5V48.125zM23.75 85.625h52.5v-71.25h-52.5V85.625zM37.813 35.403c0-1.443 1.563-2.346 2.813-1.624l25.313 14.614c1.239 0.715 1.261 2.52 0 3.248L40.625 66.254c-1.284 0.739-2.813-0.218-2.813-1.624V35.403zM41.563 38.65v22.731L61.25 50.017 41.563 38.65zM80 66.875h15v-15H80V66.875zM93.125 14.375H80v15h15V16.25C95 15.214 94.161 14.375 93.125 14.375zM80 48.125h15v-15H80V48.125z" fill="#ffffff" data-fill-palette-color="quaternary"></path></g></g></svg></g></svg></g></svg></g></svg></g></svg></g><defs></defs></svg><rect width="395.52" height="109.36921500807175" fill="none" stroke="none" visibility="hidden"></rect></g></svg></g></svg>